<svg width="462" height="247" viewBox="0 0 462 247" fill="none" xmlns="http://www.w3.org/2000/svg">
<g clip-path="url(#clip0)">
<path d="M139.711 121.03C139.711 79.1523 173.601 45.2459 215.458 45.2459C226.343 45.2459 236.779 47.6036 246.093 51.7577C263.599 28.1805 291.654 12.9114 323.187 12.9114C376.154 12.9114 419.133 55.9118 419.133 108.905" stroke="#0000DD" stroke-width="2.2919" stroke-miterlimit="10" stroke-dasharray="2.75 2.75"/>
<path d="M322.513 7.85913H320.381V142.137H322.513V7.85913Z" fill="#11CEC7"/>
<path d="M321.503 0C322.626 3.705 324.533 8.19591 326.553 11.115L321.503 8.86955L316.454 11.115C318.474 8.19591 320.381 3.705 321.503 0Z" fill="#11CEC7"/>
<path d="M340.468 7.85913H338.336V142.137H340.468V7.85913Z" fill="#11CEC7"/>
<path d="M339.458 0C340.581 3.705 342.488 8.19591 344.508 11.115L339.458 8.86955L334.409 11.115C336.428 8.19591 338.336 3.705 339.458 0Z" fill="#11CEC7"/>
<path d="M358.423 7.85913H356.291V142.137H358.423V7.85913Z" fill="#11CEC7"/>
<path d="M357.413 0C358.535 3.705 360.443 8.19591 362.463 11.115L357.413 8.86955L352.363 11.115C354.271 8.19591 356.291 3.705 357.413 0Z" fill="#11CEC7"/>
<path d="M293.112 239.815V209.501L297.04 204.561H350.231L363.473 217.809" stroke="#11CEC7" stroke-width="2.2" stroke-miterlimit="10"/>
<path d="M286.155 239.815V200.856L292.215 196.141H384.121" stroke="#11CEC7" stroke-width="2.2" stroke-miterlimit="10"/>
<path d="M279.085 239.815V192.211L286.716 184.801H324.87" stroke="#0000DD" stroke-width="2.2" stroke-miterlimit="10"/>
<path d="M273.474 239.815V183.454L282.452 173.574H354.496" stroke="#0000DD" stroke-width="2.2" stroke-miterlimit="10"/>
<path d="M266.405 239.815V174.809L285.033 156.508" stroke="#0000DD" stroke-width="2.2" stroke-miterlimit="10"/>
<path d="M260.682 239.815V153.14L283.462 129.787H304.446L334.184 159.764" stroke="#0000DD" stroke-width="2.2" stroke-miterlimit="10"/>
<path d="M253.724 239.815V148.761L278.075 124.174H304.446L321.84 141.127H361.565" stroke="#11CEC7" stroke-width="2.2" stroke-miterlimit="10"/>
<path d="M236.779 239.815V121.367L253.724 104.863V83.98" stroke="#0000DD" stroke-width="2.2" stroke-miterlimit="10"/>
<path d="M226.904 239.815V113.62" stroke="#0000DD" stroke-width="2.2" stroke-miterlimit="10"/>
<path d="M217.029 239.815V105.424L229.148 92.7373" stroke="#0000DD" stroke-width="2.2" stroke-miterlimit="10"/>
<path d="M202.889 239.814V87.3481L224.66 64.8936H317.8" stroke="#11CEC7" stroke-width="2.2" stroke-miterlimit="10"/>
<path d="M365.268 227.352C368.925 227.352 371.889 224.387 371.889 220.728C371.889 217.07 368.925 214.104 365.268 214.104C361.612 214.104 358.648 217.07 358.648 220.728C358.648 224.387 361.612 227.352 365.268 227.352Z" fill="white" stroke="#11CEC7" stroke-width="2.2" stroke-miterlimit="10"/>
<path d="M253.948 87.7972C257.605 87.7972 260.569 84.8315 260.569 81.1732C260.569 77.5148 257.605 74.5491 253.948 74.5491C250.292 74.5491 247.328 77.5148 247.328 81.1732C247.328 84.8315 250.292 87.7972 253.948 87.7972Z" fill="white" stroke="#0000DD" stroke-width="2.2" stroke-miterlimit="10"/>
<path d="M227.128 101.831C230.785 101.831 233.749 98.8657 233.749 95.2073C233.749 91.549 230.785 88.5833 227.128 88.5833C223.472 88.5833 220.508 91.549 220.508 95.2073C220.508 98.8657 223.472 101.831 227.128 101.831Z" fill="white" stroke="#0000DD" stroke-width="2.2" stroke-miterlimit="10"/>
<path d="M386.365 201.979C390.022 201.979 392.986 199.013 392.986 195.355C392.986 191.696 390.022 188.73 386.365 188.73C382.709 188.73 379.744 191.696 379.744 195.355C379.744 199.013 382.709 201.979 386.365 201.979Z" fill="white" stroke="#11CEC7" stroke-width="2.2" stroke-miterlimit="10"/>
<path d="M362.463 148.425C366.12 148.425 369.084 145.459 369.084 141.801C369.084 138.142 366.12 135.177 362.463 135.177C358.806 135.177 355.842 138.142 355.842 141.801C355.842 145.459 358.806 148.425 362.463 148.425Z" fill="white" stroke="#11CEC7" stroke-width="2.2" stroke-miterlimit="10"/>
<path d="M332.838 165.378C336.494 165.378 339.458 162.412 339.458 158.754C339.458 155.095 336.494 152.13 332.838 152.13C329.181 152.13 326.217 155.095 326.217 158.754C326.217 162.412 329.181 165.378 332.838 165.378Z" fill="white" stroke="#0000DD" stroke-width="2.2" stroke-miterlimit="10"/>
<path d="M284.921 162.459C288.577 162.459 291.541 159.493 291.541 155.835C291.541 152.176 288.577 149.21 284.921 149.21C281.264 149.21 278.3 152.176 278.3 155.835C278.3 159.493 281.264 162.459 284.921 162.459Z" fill="white" stroke="#0000DD" stroke-width="2.2" stroke-miterlimit="10"/>
<path d="M354.047 179.412C357.703 179.412 360.667 176.446 360.667 172.788C360.667 169.129 357.703 166.164 354.047 166.164C350.39 166.164 347.426 169.129 347.426 172.788C347.426 176.446 350.39 179.412 354.047 179.412Z" fill="white" stroke="#0000DD" stroke-width="2.2" stroke-miterlimit="10"/>
<path d="M324.421 190.751C328.078 190.751 331.042 187.786 331.042 184.127C331.042 180.469 328.078 177.503 324.421 177.503C320.765 177.503 317.8 180.469 317.8 184.127C317.8 187.786 320.765 190.751 324.421 190.751Z" fill="white" stroke="#0000DD" stroke-width="2.2" stroke-miterlimit="10"/>
<path d="M227.128 121.591C230.785 121.591 233.749 118.626 233.749 114.967C233.749 111.309 230.785 108.343 227.128 108.343C223.472 108.343 220.508 111.309 220.508 114.967C220.508 118.626 223.472 121.591 227.128 121.591Z" fill="white" stroke="#0000DD" stroke-width="2.2" stroke-miterlimit="10"/>
<path d="M318.81 70.8441C322.467 70.8441 325.431 67.8784 325.431 64.22C325.431 60.5617 322.467 57.5959 318.81 57.5959C315.154 57.5959 312.189 60.5617 312.189 64.22C312.189 67.8784 315.154 70.8441 318.81 70.8441Z" fill="white" stroke="#11CEC7" stroke-width="2.2" stroke-miterlimit="10"/>
<path d="M357.638 94.7581C357.413 94.7581 357.189 94.7581 357.077 94.7581C357.077 94.309 357.189 93.8599 357.189 93.4108C357.189 86.2254 351.353 80.3872 344.172 80.3872C338.673 80.3872 333.96 83.8677 332.052 88.6954C331.042 88.0218 329.808 87.5727 328.573 87.5727C325.094 87.5727 322.289 90.3795 322.289 93.8599C322.289 94.1968 322.289 94.6458 322.401 94.9827C318.474 95.7686 315.444 99.249 315.444 103.515C315.444 108.343 319.371 112.273 324.085 112.273H357.75C362.575 112.273 366.503 108.343 366.503 103.515C366.278 98.6877 362.463 94.7581 357.638 94.7581Z" fill="#0000DD" stroke="#0000DD" stroke-width="3.6895" stroke-miterlimit="10"/>
<path d="M357.638 94.7581C357.413 94.7581 357.189 94.7581 357.077 94.7581C357.077 94.309 357.189 93.8599 357.189 93.4108C357.189 86.2254 351.353 80.3872 344.172 80.3872C338.673 80.3872 333.96 83.8677 332.052 88.6954C331.042 88.0218 329.808 87.5727 328.573 87.5727C325.094 87.5727 322.289 90.3795 322.289 93.8599C322.289 94.1968 322.289 94.6458 322.401 94.9827C318.474 95.7686 315.444 99.249 315.444 103.515C315.444 108.343 319.371 112.273 324.085 112.273H357.75C362.575 112.273 366.503 108.343 366.503 103.515C366.278 98.6877 362.463 94.7581 357.638 94.7581Z" fill="white"/>
<path d="M419.245 119.795C426.062 119.795 431.589 114.266 431.589 107.445C431.589 100.624 426.062 95.0952 419.245 95.0952C412.428 95.0952 406.901 100.624 406.901 107.445C406.901 114.266 412.428 119.795 419.245 119.795Z" fill="white"/>
<path d="M419.245 121.03C411.727 121.03 405.667 114.967 405.667 107.445C405.667 99.9228 411.727 93.8601 419.245 93.8601C426.764 93.8601 432.823 99.9228 432.823 107.445C432.823 114.967 426.651 121.03 419.245 121.03ZM419.245 96.3301C413.073 96.3301 408.136 101.27 408.136 107.445C408.136 113.62 413.073 118.56 419.245 118.56C425.417 118.56 430.355 113.62 430.355 107.445C430.355 101.27 425.305 96.3301 419.245 96.3301Z" fill="#0000DD"/>
<path d="M421.041 104.638C420.479 104.189 420.031 103.852 419.357 103.852C418.572 103.852 418.123 104.302 418.123 104.975C418.123 106.659 422.051 106.322 422.051 109.242C422.051 110.589 421.265 111.599 419.806 111.824V113.283H418.684V111.824C417.786 111.712 416.889 111.375 416.215 110.701L417.001 109.578C417.674 110.14 418.347 110.477 419.133 110.477C420.031 110.477 420.479 110.027 420.479 109.242C420.479 107.333 416.552 107.67 416.552 104.975C416.552 103.628 417.337 102.73 418.684 102.505V101.046H419.806V102.505C420.704 102.617 421.377 103.067 421.826 103.628L421.041 104.638Z" fill="#0000DD"/>
<path d="M426.203 188.843C426.203 187.832 425.978 186.822 425.641 185.811L422.948 185.699L424.07 183.117C423.397 182.331 422.612 181.769 421.826 181.208L419.469 183.005L418.572 180.085C418.235 180.085 417.786 179.973 417.45 179.973C416.888 179.973 416.327 180.085 415.766 180.085L415.093 183.117L412.512 181.433C411.726 181.994 411.053 182.668 410.38 183.454L411.726 186.148L408.809 186.485C408.584 187.271 408.472 187.945 408.472 188.843C408.472 189.067 408.472 189.292 408.472 189.516L411.053 190.527L409.258 192.435C409.707 193.446 410.268 194.232 411.053 195.018L413.41 194.232L413.298 196.59C414.195 197.039 415.317 197.375 416.44 197.488L417.674 195.579L419.021 197.375C420.143 197.151 421.153 196.702 422.051 196.14L421.714 193.895L423.958 194.456C424.631 193.67 425.193 192.66 425.529 191.65L423.734 189.965L426.203 188.843Z" fill="white"/>
<path d="M416.889 198.386H416.44C415.317 198.274 414.195 197.937 413.073 197.376L412.624 197.151L412.736 195.355L410.941 195.916L410.604 195.579C409.819 194.793 409.146 193.895 408.697 192.772L408.472 192.323L409.931 190.751L407.911 189.966V189.516C407.911 189.292 407.911 189.067 407.911 188.843C407.911 187.945 408.023 187.159 408.248 186.373L408.36 185.924L410.717 185.587L409.594 183.454L409.819 183.117C410.492 182.331 411.165 181.545 412.063 180.984L412.4 180.759L414.532 182.106L415.093 179.636L415.542 179.524C416.552 179.3 417.562 179.3 418.684 179.412L419.133 179.524L419.806 181.882L421.714 180.422L422.163 180.647C423.061 181.208 423.958 181.882 424.632 182.668L424.968 183.005L424.07 185.138L426.203 185.25L426.315 185.699C426.651 186.71 426.876 187.832 426.876 188.955V189.404L426.539 189.629L425.193 190.302L426.651 191.537L426.539 191.986C426.203 193.109 425.642 194.12 424.856 195.018L424.632 195.355L422.948 194.906L423.173 196.59L422.836 196.814C421.826 197.488 420.704 197.937 419.582 198.161L419.133 198.274L418.123 196.926L416.889 198.386ZM414.195 196.253C414.869 196.59 415.542 196.702 416.215 196.814L417.786 194.344L419.47 196.59C420.143 196.365 420.816 196.14 421.489 195.804L421.153 192.997L423.958 193.671C424.407 193.109 424.744 192.548 424.968 191.874L422.724 189.853L425.529 188.394C425.529 187.72 425.417 187.046 425.193 186.485L421.938 186.373L423.285 183.229C422.836 182.78 422.387 182.443 421.826 182.106L419.021 184.24L418.011 180.871C417.45 180.871 416.889 180.871 416.215 180.871L415.43 184.352L412.4 182.443C411.951 182.78 411.502 183.229 411.165 183.678L412.849 186.822L409.482 187.271C409.37 187.832 409.258 188.394 409.258 188.955C409.258 189.067 409.258 189.067 409.258 189.18L412.4 190.415L410.268 192.772C410.604 193.334 410.941 193.895 411.39 194.456L414.308 193.558L414.195 196.253Z" fill="#0000DD"/>
<path d="M417.45 191.313C418.813 191.313 419.918 190.207 419.918 188.843C419.918 187.479 418.813 186.373 417.45 186.373C416.086 186.373 414.981 187.479 414.981 188.843C414.981 190.207 416.086 191.313 417.45 191.313Z" fill="white"/>
<path d="M417.45 191.987C415.766 191.987 414.308 190.527 414.308 188.843C414.308 187.159 415.766 185.699 417.45 185.699C419.133 185.699 420.592 187.159 420.592 188.843C420.592 190.527 419.133 191.987 417.45 191.987ZM417.45 187.047C416.44 187.047 415.766 187.832 415.766 188.731C415.766 189.741 416.552 190.415 417.45 190.415C418.347 190.415 419.133 189.629 419.133 188.731C419.133 187.832 418.347 187.047 417.45 187.047Z" fill="#0000DD"/>
<path d="M63.1785 72.9775L93.0284 94.1971H33.2164L63.1785 72.9775Z" fill="#11CEC7"/>
<path d="M93.0284 95.2075H33.2164C32.7676 95.2075 32.3187 94.8707 32.2065 94.5339C32.0942 94.0848 32.2065 93.6357 32.5431 93.4111L62.5052 72.1916C62.8419 71.9671 63.403 71.9671 63.7396 72.1916L93.7017 93.4111C94.0384 93.6357 94.2628 94.1971 94.0384 94.5339C93.9262 94.983 93.4773 95.2075 93.0284 95.2075ZM36.5829 93.1866H89.7741L63.1785 74.2125L36.5829 93.1866Z" fill="#0000DD"/>
<path d="M63.1785 117.101L93.0284 94.197H33.2164L63.1785 117.101Z" fill="white"/>
<path d="M63.1785 118.111C62.9541 118.111 62.7297 117.999 62.5052 117.887L32.6553 94.9829C32.3187 94.7583 32.2065 94.197 32.3187 93.8602C32.4309 93.4111 32.8798 93.1865 33.3286 93.1865H93.1406C93.5895 93.1865 94.0384 93.5233 94.1506 93.8602C94.2628 94.3092 94.1506 94.7583 93.8139 94.9829L63.8518 117.887C63.6274 117.999 63.403 118.111 63.1785 118.111ZM36.3585 95.2074L63.1785 115.753L89.9985 95.2074H36.3585Z" fill="#0000DD"/>
<path d="M80.2356 63.0974H46.1214V127.093H80.2356V63.0974Z" fill="white"/>
<path d="M80.2356 128.216H46.1214C45.5603 128.216 45.1115 127.766 45.1115 127.205V63.2097C45.1115 62.6483 45.5603 62.1992 46.1214 62.1992H80.2356C80.7967 62.1992 81.2456 62.6483 81.2456 63.2097V127.205C81.2456 127.766 80.7967 128.216 80.2356 128.216ZM47.1314 126.082H79.2256V64.1079H47.1314V126.082Z" fill="#0000DD"/>
<path d="M63.1785 117.1L33.2164 94.1968V112.834V131.359H63.1785H93.0284V112.834V94.1968L63.1785 117.1Z" fill="#11CEC7"/>
<path d="M93.0284 132.482H33.2164C32.6553 132.482 32.2065 132.033 32.2065 131.471V94.1969C32.2065 93.7478 32.4309 93.4109 32.7675 93.2987C33.1042 93.0741 33.5531 93.1864 33.8897 93.4109L63.1785 115.753L92.4673 93.4109C92.804 93.1864 93.2528 93.0741 93.5895 93.2987C93.9262 93.5232 94.1506 93.86 94.1506 94.1969V131.359C94.1506 132.033 93.7017 132.482 93.0284 132.482ZM34.3386 130.349H92.0185V96.33L63.8518 117.886C63.5152 118.223 62.9541 118.223 62.6174 117.886L34.3386 96.33V130.349Z" fill="#0000DD"/>
<path d="M63.1785 108.568L93.0284 131.359H33.2164L63.1785 108.568Z" fill="#11CEC7"/>
<path d="M93.0284 132.482H33.2164C32.7676 132.482 32.3187 132.145 32.2065 131.808C32.0942 131.359 32.2065 130.91 32.5431 130.686L62.5052 107.782C62.8419 107.445 63.403 107.445 63.7396 107.782L93.7017 130.686C94.0384 130.91 94.1506 131.471 94.0384 131.808C93.9261 132.145 93.4773 132.482 93.0284 132.482ZM36.3585 130.349H89.9985L63.1785 109.915L36.3585 130.349Z" fill="#0000DD"/>
<path d="M71.4826 83.1943H54.7622V85.3275H71.4826V83.1943Z" fill="#0000DD"/>
<path d="M71.4826 89.7061H54.7622V91.8392H71.4826V89.7061Z" fill="#0000DD"/>
<path d="M33.2164 114.743V238.467H126.806V120.356L116.033 114.743H33.2164Z" fill="white"/>
<path d="M126.806 239.477H33.2164C32.6553 239.477 32.2065 239.028 32.2065 238.466V114.742C32.2065 114.18 32.6553 113.731 33.2164 113.731H116.033C116.257 113.731 116.37 113.731 116.482 113.843L127.255 119.569C127.591 119.794 127.816 120.131 127.816 120.468V238.578C127.816 239.028 127.367 239.477 126.806 239.477ZM34.3386 237.456H125.796V121.029L115.809 115.752H34.3386V237.456Z" fill="#0000DD"/>
<path d="M116.033 114.743L126.806 120.356L117.829 123.051L116.033 114.743Z" fill="white"/>
<path d="M117.829 124.174C117.604 124.174 117.492 124.174 117.267 124.061C117.043 123.949 116.819 123.612 116.819 123.388L115.023 114.967C114.911 114.518 115.135 114.181 115.36 113.957C115.696 113.732 116.145 113.62 116.482 113.845L127.255 119.57C127.591 119.795 127.816 120.132 127.816 120.581C127.816 121.03 127.479 121.367 127.03 121.479L118.053 124.174C118.053 124.061 117.941 124.174 117.829 124.174ZM117.492 116.651L118.614 121.704L124.113 120.02L117.492 116.651Z" fill="#0000DD"/>
<path d="M49.1513 159.876H44.7748V168.634H49.1513V159.876Z" fill="white"/>
<path d="M50.1613 169.644H43.7649V158.754H50.2735V169.644H50.1613ZM45.7848 167.623H48.0291V160.887H45.7848V167.623Z" fill="#0000DD"/>
<path d="M60.1486 153.252H55.7721V168.634H60.1486V153.252Z" fill="white"/>
<path d="M61.1586 169.644H54.65V152.242H61.1586V169.644ZM56.7821 167.623H59.0264V154.375H56.7821V167.623Z" fill="#0000DD"/>
<path d="M71.0337 144.495H66.6573V168.634H71.0337V144.495Z" fill="white"/>
<path d="M72.1559 169.644H65.6473V143.485H72.1559V169.644ZM67.6672 167.623H69.9116V145.618H67.6672V167.623Z" fill="#0000DD"/>
<path d="M82.0311 140.116H77.6546V168.634H82.0311V140.116Z" fill="white"/>
<path d="M83.041 169.644H76.5324V139.106H83.041V169.644ZM78.6645 167.623H80.9089V141.239H78.6645V167.623Z" fill="#0000DD"/>
<path d="M92.9162 133.605H88.5397V168.634H92.9162V133.605Z" fill="white"/>
<path d="M94.0384 169.644H87.5297V132.482H94.0384V169.644ZM89.6619 167.623H91.9062V134.615H89.6619V167.623Z" fill="#0000DD"/>
<path d="M103.914 136.748H99.537V168.634H103.914V136.748Z" fill="white"/>
<path d="M104.923 169.644H98.4149V135.738H104.923V169.644ZM100.547 167.623H102.791V137.871H100.547V167.623Z" fill="#0000DD"/>
<path d="M114.911 130.237H110.534V168.634H114.911V130.237Z" fill="white"/>
<path d="M115.921 169.644H109.412V129.114H115.921V169.644ZM111.544 167.623H113.789V131.247H111.544V167.623Z" fill="#0000DD"/>
<path d="M116.706 174.247H42.8671V176.381H116.706V174.247Z" fill="#0000DD"/>
<path d="M75.6347 201.193L84.051 186.597L92.4673 201.193H75.6347Z" fill="#BFDEFF"/>
<path d="M69.0138 201.193L77.4301 180.871L85.8465 201.193H69.0138Z" fill="#11CEC7"/>
<path d="M57.1188 201.193L65.5351 186.597L74.0636 201.193H57.1188Z" fill="#BFDEFF"/>
<path d="M50.4979 201.193L58.9142 180.871L67.3306 201.193H50.4979Z" fill="#11CEC7"/>
<path d="M92.2429 201.193L100.659 182.331L109.188 201.193H92.2429Z" fill="#BFDEFF"/>
<path d="M85.6221 201.193L94.0384 186.597L102.567 201.193H85.6221Z" fill="#00A0D8"/>
<path d="M115.023 213.431H112.891V211.297H115.023V213.431ZM110.759 213.431H86.7442V211.297H110.759V213.431ZM84.7243 213.431H82.5922V211.297H84.7243V213.431ZM58.5776 213.431H56.4454V211.297H58.5776V213.431ZM54.4255 213.431H44.6626V211.297H54.4255V213.431Z" fill="#43566B"/>
<path d="M115.023 221.626H112.891V219.493H115.023V221.626ZM110.759 221.626H86.7442V219.493H110.759V221.626ZM84.7243 221.626H82.5922V219.493H84.7243V221.626ZM58.5776 221.626H56.4454V219.493H58.5776V221.626ZM54.4255 221.626H44.6626V219.493H54.4255V221.626Z" fill="#43566B"/>
<path d="M115.023 229.71H112.891V227.577H115.023V229.71ZM110.759 229.71H86.7442V227.577H110.759V229.71ZM84.7243 229.71H82.5922V227.577H84.7243V229.71ZM58.5776 229.71H56.4454V227.577H58.5776V229.71ZM54.4255 229.71H44.6626V227.577H54.4255V229.71Z" fill="#43566B"/>
<path d="M63.8518 212.196H44.6626V228.924H63.8518V212.196Z" fill="white"/>
<path d="M63.964 230.047H44.6626C44.1015 230.047 43.6526 229.598 43.6526 229.036V212.196C43.6526 211.634 44.1015 211.185 44.6626 211.185H63.964C64.5251 211.185 64.974 211.634 64.974 212.196V228.924C64.974 229.485 64.5251 230.047 63.964 230.047ZM45.7848 227.914H62.8419V213.206H45.7848V227.914Z" fill="#0000DD"/>
<path d="M64.1885 22.4547L59.5876 17.8515L64.1885 13.2483L68.7894 17.8515L64.1885 22.4547ZM62.5052 17.7392L64.1885 19.4233L65.8717 17.7392L64.1885 16.0551L62.5052 17.7392Z" fill="#0000DD"/>
<path d="M64.1885 37.836L59.5876 33.2328L64.1885 28.6296L68.7894 33.2328L64.1885 37.836ZM62.5052 33.2328L64.1885 34.9169L65.8717 33.2328L64.1885 31.5487L62.5052 33.2328Z" fill="#0000DD"/>
<path d="M64.1885 53.2174L59.5876 48.6142L64.1885 44.011L68.7894 48.6142L64.1885 53.2174ZM62.5052 48.6142L64.1885 50.2983L65.8717 48.6142L64.1885 46.9301L62.5052 48.6142Z" fill="#0000DD"/>
<path d="M183.925 238.467H88.5397C85.2854 238.467 82.5922 235.773 82.5922 232.517V168.409H189.872V232.517C189.872 235.773 187.179 238.467 183.925 238.467Z" fill="white"/>
<path d="M183.925 239.478H88.5397C84.7243 239.478 81.5822 236.334 81.5822 232.517V167.399H190.882V232.517C190.882 236.334 187.74 239.478 183.925 239.478ZM83.7144 169.42V232.517C83.7144 235.211 85.9587 237.457 88.6519 237.457H184.037C186.73 237.457 188.974 235.211 188.974 232.517V169.42H83.7144Z" fill="#0000DD"/>
<path d="M136.232 210.175C118.165 210.175 99.9859 208.041 82.3677 203.775L82.8166 201.754C117.716 210.175 154.636 210.175 189.536 201.754L189.984 203.775C172.479 208.041 154.411 210.175 136.232 210.175Z" fill="#0000DD"/>
<path d="M144.536 199.284H126.918V207.368H144.536V199.284Z" fill="#11CEC7"/>
<path d="M126.918 210.624V218.707C126.918 221.514 144.536 221.514 144.536 218.707V210.624H126.918ZM134.325 218.034L135.334 215.676C134.886 215.564 134.661 215.115 134.661 214.666C134.661 214.104 135.11 213.543 135.783 213.543C136.344 213.543 136.906 213.992 136.906 214.666C136.906 215.115 136.569 215.564 136.232 215.676L137.242 218.034H134.325Z" fill="#11CEC7"/>
<path d="M144.536 198.274H126.918V200.407H144.536V198.274Z" fill="#0000DD"/>
<path d="M128.04 171.553H125.908V196.702H128.04V171.553Z" fill="#0000DD"/>
<path d="M145.546 171.553H143.414V196.702H145.546V171.553Z" fill="#0000DD"/>
<path d="M183.588 230.945H181.456V228.812H183.588V230.945ZM179.324 230.945H177.304V228.812H179.436V230.945H179.324ZM175.172 230.945H173.04V228.812H175.172V230.945ZM171.02 230.945H168.888V228.812H171.02V230.945ZM166.868 230.945H164.735V228.812H166.868V230.945ZM162.716 230.945H160.583V228.812H162.716V230.945ZM158.451 230.945H156.319V228.812H158.451V230.945ZM154.299 230.945H152.167V228.812H154.299V230.945ZM150.147 230.945H148.015V228.812H150.147V230.945ZM145.995 230.945H143.863V228.812H145.995V230.945ZM141.731 230.945H139.599V228.812H141.731V230.945ZM137.579 230.945H135.447V228.812H137.579V230.945ZM133.427 230.945H131.295V228.812H133.427V230.945ZM129.275 230.945H127.143V228.812H129.275V230.945ZM125.123 230.945H122.991V228.812H125.123V230.945ZM120.858 230.945H118.726V228.812H120.858V230.945ZM116.706 230.945H114.574V228.812H116.706V230.945ZM112.554 230.945H110.422V228.812H112.554V230.945ZM108.402 230.945H106.27V228.812H108.402V230.945ZM104.138 230.945H102.118V228.812H104.25V230.945H104.138ZM99.9859 230.945H97.8538V228.812H99.9859V230.945ZM95.8339 230.945H93.7017V228.812H95.8339V230.945Z" fill="#00A0D8"/>
<path d="M149.474 150.333H122.878V159.427H149.474V150.333Z" fill="white"/>
<path d="M150.484 160.438H121.756V149.323H150.484V160.438ZM123.888 158.417H148.352V151.456H123.888V158.417Z" fill="#0000DD"/>
<path d="M158.564 169.42L114.013 168.97V153.589H123.888V158.417H148.352V153.589H158.564V169.42ZM116.033 166.95L156.431 167.399V155.722H150.484V160.55H121.756V155.722H116.033V166.95Z" fill="#0000DD"/>
<path d="M109.076 193.334H92.0184V177.279H94.1506V191.2H106.943V177.279H109.076V193.334Z" fill="#11CEC7"/>
<path d="M180.558 193.334H163.501V177.279H165.521V191.2H178.426V177.279H180.558V193.334Z" fill="#11CEC7"/>
<path d="M192.453 124.847L187.403 125.184V148.537L187.516 149.098C199.747 155.722 201.431 156.059 211.418 154.712L218.039 154.824L217.927 133.717H220.508H247.777C249.796 133.717 251.48 132.033 251.48 130.012C251.48 127.991 249.796 126.307 247.777 126.307C248.899 126.307 209.623 125.409 209.623 125.409C209.623 125.409 210.857 102.281 208.164 102.505C207.603 102.393 206.929 102.281 206.256 102.281C205.358 102.281 204.685 102.842 204.573 103.74L195.932 122.265C195.371 123.837 194.024 124.735 192.453 124.847Z" fill="white"/>
<path d="M186.169 148.649V124.061L192.341 123.612C193.463 123.5 194.361 122.826 194.81 121.928L203.451 103.515C203.787 102.168 204.909 101.27 206.368 101.27C207.042 101.27 207.715 101.382 208.388 101.495C208.837 101.495 209.174 101.719 209.51 101.944C211.642 103.965 211.306 117.437 210.969 124.398L241.941 125.072C245.083 125.184 246.879 125.184 247.889 125.296V125.184C250.582 125.184 252.826 127.43 252.826 130.124C252.826 132.819 250.582 135.064 247.889 135.064H219.273L219.385 156.171L211.53 155.947C201.318 157.294 199.411 156.845 186.955 150.109L186.393 149.772L186.169 148.649ZM188.638 126.307V148.312C200.196 154.6 201.543 154.824 211.194 153.477H211.306L216.804 153.589L216.692 132.482H247.777C249.123 132.482 250.245 131.359 250.245 130.012C250.245 128.665 249.123 127.542 247.777 127.542V126.868V127.766C247.103 127.766 222.528 127.205 209.623 126.868H208.388L208.5 125.633C208.949 116.539 208.949 105.873 207.939 103.965C207.49 103.852 206.929 103.74 206.48 103.74C206.256 103.74 206.032 103.965 206.032 104.189L205.919 104.526L197.279 123.051C196.381 124.847 194.698 126.082 192.678 126.195L188.638 126.307Z" fill="#0000DD"/>
<path d="M230.832 141.239H219.61C217.59 141.239 215.907 139.555 215.907 137.534C215.907 135.513 217.59 133.829 219.61 133.829H230.832C232.852 133.829 234.535 135.513 234.535 137.534C234.535 139.667 232.852 141.239 230.832 141.239Z" fill="white"/>
<path d="M214.672 137.646C214.672 134.952 216.917 132.706 219.61 132.706H230.832C233.525 132.706 235.769 134.952 235.769 137.646C235.769 140.341 233.525 142.586 230.832 142.586H219.61C216.917 142.474 214.672 140.341 214.672 137.646ZM233.3 137.646C233.3 136.299 232.178 135.176 230.832 135.176H219.61C218.263 135.176 217.141 136.299 217.141 137.646C217.141 138.994 218.263 140.116 219.61 140.116H230.832C232.178 140.004 233.3 138.994 233.3 137.646Z" fill="#0000DD"/>
<path d="M229.822 148.649H218.6C216.58 148.649 214.897 146.965 214.897 144.944C214.897 142.923 216.58 141.239 218.6 141.239H229.822C231.842 141.239 233.525 142.923 233.525 144.944C233.525 147.077 231.954 148.649 229.822 148.649Z" fill="white"/>
<path d="M213.662 144.944C213.662 142.25 215.907 140.004 218.6 140.004H229.822C232.515 140.004 234.759 142.25 234.759 144.944C234.759 147.639 232.515 149.884 229.822 149.884H218.6C215.907 149.884 213.662 147.751 213.662 144.944ZM232.29 144.944C232.29 143.597 231.168 142.474 229.822 142.474H218.6C217.253 142.474 216.131 143.597 216.131 144.944C216.131 146.291 217.253 147.414 218.6 147.414H229.822C231.168 147.414 232.29 146.291 232.29 144.944Z" fill="#0000DD"/>
<path d="M228.924 156.059H217.702C215.682 156.059 213.999 154.375 213.999 152.354C213.999 150.333 215.682 148.649 217.702 148.649H228.924C230.944 148.649 232.627 150.333 232.627 152.354C232.627 154.375 230.944 156.059 228.924 156.059Z" fill="white"/>
<path d="M212.765 152.354C212.765 149.66 215.009 147.414 217.702 147.414H228.924C231.617 147.414 233.862 149.66 233.862 152.354C233.862 155.049 231.617 157.294 228.924 157.294H217.702C215.009 157.294 212.765 155.049 212.765 152.354ZM231.393 152.354C231.393 151.007 230.271 149.884 228.924 149.884H217.702C216.356 149.884 215.233 151.007 215.233 152.354C215.233 153.701 216.356 154.824 217.702 154.824H228.924C230.271 154.824 231.393 153.701 231.393 152.354Z" fill="#0000DD"/>
<path d="M127.479 123.612V121.142H188.638V155.61H148.464V153.14H186.169V123.612H127.479Z" fill="#0000DD"/>
<path d="M374.695 164.816L391.191 148.312V93.1864L370.318 72.3037" stroke="#0000DD" stroke-width="2.2" stroke-miterlimit="10"/>
<path d="M377.837 169.869C375.592 172.114 371.889 172.114 369.645 169.869C367.401 167.623 367.401 163.918 369.645 161.673C371.889 159.427 375.592 159.427 377.837 161.673C380.081 164.03 380.081 167.623 377.837 169.869Z" fill="white" stroke="#0000DD" stroke-width="2.2" stroke-miterlimit="10"/>
<path d="M377.837 78.4786C375.592 80.7241 371.889 80.7241 369.645 78.4786C367.401 76.2332 367.401 72.5282 369.645 70.2827C371.889 68.0373 375.592 68.0373 377.837 70.2827C380.081 72.6405 380.081 76.2332 377.837 78.4786Z" fill="white" stroke="#0000DD" stroke-width="2.2" stroke-miterlimit="10"/>
<path d="M398.036 141.014C394.333 144.719 388.497 144.719 384.794 141.014C381.091 137.309 381.091 131.471 384.794 127.766C388.497 124.061 394.333 124.061 398.036 127.766C401.739 131.471 401.627 137.309 398.036 141.014Z" fill="white" stroke="#0000DD" stroke-width="2.2" stroke-miterlimit="10"/>
<path d="M395.455 138.432C393.211 140.678 389.507 140.678 387.263 138.432C385.019 136.187 385.019 132.482 387.263 130.236C389.507 127.991 393.211 127.991 395.455 130.236C397.699 132.594 397.699 136.187 395.455 138.432Z" fill="#0000DD"/>
<path d="M175.508 108.006C171.805 108.006 168.663 104.975 168.663 101.158C168.663 97.4527 171.693 94.4214 175.508 94.4214C179.212 94.4214 182.354 97.4527 182.354 101.158C182.354 104.975 179.324 108.006 175.508 108.006ZM175.508 96.8914C173.152 96.8914 171.244 98.8 171.244 101.158C171.244 103.515 173.152 105.424 175.508 105.424C177.865 105.424 179.885 103.515 179.885 101.158C179.885 98.8 177.977 96.8914 175.508 96.8914Z" fill="#11CEC7"/>
<path d="M324.421 226.679C320.718 226.679 317.576 223.647 317.576 219.83C317.576 216.013 320.606 212.981 324.421 212.981C328.237 212.981 331.154 216.013 331.154 219.83C331.154 223.647 328.124 226.679 324.421 226.679ZM324.421 215.564C322.065 215.564 320.045 217.472 320.045 219.942C320.045 222.3 321.952 224.209 324.421 224.209C326.89 224.209 328.798 222.3 328.798 219.942C328.685 217.472 326.778 215.564 324.421 215.564Z" fill="#0000DD"/>
<path d="M126.806 81.7346C124 81.7346 121.644 79.4892 121.644 76.5701C121.644 73.7632 123.888 71.4055 126.806 71.4055C129.611 71.4055 131.968 73.651 131.968 76.5701C131.968 79.4892 129.611 81.7346 126.806 81.7346ZM126.806 73.3142C125.01 73.3142 123.552 74.7737 123.552 76.5701C123.552 78.3664 125.01 79.826 126.806 79.826C128.601 79.826 130.06 78.3664 130.06 76.5701C130.06 74.7737 128.601 73.3142 126.806 73.3142Z" fill="#0000DD"/>
<path d="M195.146 72.9773H178.65C177.977 72.9773 177.416 72.416 177.416 71.7423C177.416 71.0687 177.977 70.5073 178.65 70.5073H195.146C195.82 70.5073 196.381 71.0687 196.381 71.7423C196.381 72.416 195.82 72.9773 195.146 72.9773Z" fill="#0000DD"/>
<path d="M190.77 77.6927H178.65C177.977 77.6927 177.416 77.1313 177.416 76.4577C177.416 75.784 177.977 75.2227 178.65 75.2227H190.77C191.443 75.2227 192.004 75.784 192.004 76.4577C192.004 77.1313 191.443 77.6927 190.77 77.6927Z" fill="#0000DD"/>
<path d="M296.703 95.7686H280.207C279.534 95.7686 278.973 95.2072 278.973 94.5336C278.973 93.8599 279.534 93.2986 280.207 93.2986H296.703C297.377 93.2986 297.938 93.8599 297.938 94.5336C297.938 95.2072 297.377 95.7686 296.703 95.7686Z" fill="#11CEC7"/>
<path d="M292.439 100.484H280.32C279.646 100.484 279.085 99.9228 279.085 99.2492C279.085 98.5755 279.646 98.0142 280.32 98.0142H292.439C293.112 98.0142 293.674 98.5755 293.674 99.2492C293.674 99.9228 293.112 100.484 292.439 100.484Z" fill="#11CEC7"/>
<path d="M111.544 97.9018L104.25 90.6041L111.544 83.3064L118.838 90.6041L111.544 97.9018ZM107.729 90.6041L111.544 94.4214L115.36 90.6041L111.544 86.7869L107.729 90.6041Z" fill="#0000DD"/>
<path d="M405.667 169.644L398.373 162.346L405.667 155.049L412.961 162.346L405.667 169.644ZM401.851 162.346L405.667 166.164L409.482 162.346L405.667 158.529L401.851 162.346Z" fill="#0000DD"/>
<path d="M377.949 239.478C377.949 222.637 391.64 208.939 408.472 208.939C425.305 208.939 438.995 222.637 438.995 239.478" stroke="#0000DD" stroke-width="1.9357" stroke-miterlimit="10" stroke-dasharray="1.29 1.29"/>
<path d="M421.489 142.362L416.888 137.759L421.489 133.156L426.09 137.759L421.489 142.362ZM419.806 137.759L421.489 139.443L423.173 137.759L421.489 136.075L419.806 137.759Z" fill="#0000DD"/>
<path d="M8.64076 239.365H453.584" stroke="#0000DD" stroke-width="2.3" stroke-miterlimit="10"/>
<path d="M7.40636 245.765C10.815 245.765 13.5783 243 13.5783 239.59C13.5783 236.18 10.815 233.415 7.40636 233.415C3.99768 233.415 1.23439 236.18 1.23439 239.59C1.23439 243 3.99768 245.765 7.40636 245.765Z" fill="white"/>
<path d="M7.40636 247C3.36653 247 0 243.632 0 239.59C0 235.548 3.36653 232.18 7.40636 232.18C11.4462 232.18 14.8127 235.548 14.8127 239.59C14.8127 243.744 11.4462 247 7.40636 247ZM7.40636 234.65C4.71314 234.65 2.46879 236.895 2.46879 239.59C2.46879 242.284 4.71314 244.53 7.40636 244.53C10.0996 244.53 12.3439 242.284 12.3439 239.59C12.3439 236.895 10.0996 234.65 7.40636 234.65Z" fill="#0000DD"/>
<path d="M458.934 242.837C461.345 240.425 461.345 236.516 458.934 234.104C456.524 231.693 452.616 231.693 450.206 234.104C447.796 236.516 447.796 240.425 450.206 242.837C452.616 245.248 456.524 245.248 458.934 242.837Z" fill="white"/>
<path d="M456.277 246.888C450.89 248.123 446.177 243.407 447.412 238.018C447.973 235.324 450.217 233.078 452.91 232.517C458.297 231.282 463.01 235.997 461.776 241.386C461.214 244.081 458.97 246.214 456.277 246.888ZM455.94 234.874C452.237 233.864 448.871 237.232 449.881 240.937C450.329 242.621 451.676 243.969 453.247 244.305C456.95 245.316 460.317 241.948 459.307 238.243C458.858 236.671 457.624 235.324 455.94 234.874Z" fill="#0000DD"/>
</g>
<defs>
<clipPath id="clip0">
<rect width="462" height="247" fill="white"/>
</clipPath>
</defs>
</svg>
